<?xml version="1.0" standalone="no"?>
<!DOCTYPE svg PUBLIC "-//W3C//DTD SVG 20010904//EN"
 "http://www.w3.org/TR/2001/REC-SVG-20010904/DTD/svg10.dtd">
<svg version="1.0" xmlns="http://www.w3.org/2000/svg"
 width="512.000000pt" height="512.000000pt" viewBox="0 0 512.000000 512.000000"
 preserveAspectRatio="xMidYMid meet">
<metadata>
Created by potrace 1.11, written by Peter Selinger 2001-2013
</metadata>
<g transform="translate(0.000000,512.000000) scale(0.100000,-0.100000)"
fill="#000000" stroke="none">
<path d="M2369 5115 c-2 -1 -35 -6 -74 -9 -38 -3 -81 -8 -95 -11 -39 -6 -142
-25 -175 -31 -40 -7 -165 -40 -240 -64 -468 -144 -914 -450 -1221 -836 -72
-89 -179 -243 -210 -299 -110 -203 -180 -357 -225 -499 -22 -69 -66 -228 -73
-266 -3 -14 -9 -47 -14 -75 -6 -27 -13 -75 -17 -105 -4 -30 -9 -68 -12 -85 -2
-16 -6 -122 -7 -235 -6 -374 47 -661 186 -1003 37 -91 111 -245 140 -292 7
-11 35 -56 62 -100 123 -199 307 -415 494 -577 146 -127 379 -278 562 -365
141 -67 388 -157 486 -178 11 -2 42 -9 69 -15 55 -13 139 -28 200 -36 22 -3
54 -7 70 -10 54 -10 439 -12 515 -3 155 18 175 20 190 24 8 2 31 7 50 10 19 3
80 17 135 30 381 92 743 277 1060 545 35 29 217 212 260 261 56 62 165 207
165 218 0 6 4 11 8 11 19 0 252 422 252 456 0 3 7 20 15 37 31 69 92 259 119
377 49 209 64 368 61 615 -2 116 -5 221 -8 235 -4 14 -8 45 -11 70 -24 203
-92 446 -187 669 -47 108 -134 280 -148 291 -3 3 -14 22 -25 42 -10 20 -27 46
-37 57 -11 11 -19 23 -19 27 0 3 -26 41 -57 83 -260 346 -577 609 -946 785
-123 59 -155 72 -272 112 -209 71 -278 88 -495 120 -90 14 -521 29 -531 19z"/>
</g>
</svg>
